<svg id="Layer_1" data-name="Layer 1" xmlns="http://www.w3.org/2000/svg" viewBox="0 0 1000 390"><defs><style>.cls-1{fill:#ccc;}.cls-2{fill:#fff;}</style></defs><title>Artboard 1</title><path class="cls-1" d="M191.72,317.52c0,4.56-22.8,8.25-50.93,8.25s-50.92-3.69-50.92-8.25,22.8-8.26,50.92-8.26S191.72,313,191.72,317.52Z"/><path d="M87.79,231.82V95.75L89,94.27c4.75-6,25.93-14.64,51.82-14.64s47.06,8.65,51.81,14.64l1.18,1.48V231.82l-53,56.27Z"/><path class="cls-2" d="M174.11,180.39c6.32-5.18,12.78-14.58,12.78-31.37,0-13.41-7-13.58-16.33-13.58H111c-9.34,0-16.33.17-16.33,13.58,0,16.79,6.47,26.19,12.79,31.37C98.53,191,93.23,204.27,93.23,217v19.68l47.56,49.25,47.55-49.25V217C188.34,204.27,183,191,174.11,180.39Z"/><polygon points="120.47 264.87 140.79 285.91 161.1 264.87 120.47 264.87"/><path d="M181.22,79.16c-11.85-4.47-26.2-6.93-40.43-6.93s-28.58,2.46-40.43,6.93c-9.11,3.44-20,9.29-20,17.64V232.21a6.44,6.44,0,0,0,1.75,4.4l54,57.32a6.42,6.42,0,0,0,9.35,0l54-57.32a6.44,6.44,0,0,0,1.75-4.4V96.8C201.19,88.45,190.33,82.6,181.22,79.16Zm7.12,150.5-47.55,50.5-47.56-50.5v-132c3.13-4,22.22-12.59,47.56-12.59s44.42,8.64,47.55,12.59Z"/><path d="M140.79,239.81a258.93,258.93,0,0,1-55.07-5.95,5.14,5.14,0,0,1,2.18-10,247.55,247.55,0,0,0,105.77,0,5.14,5.14,0,1,1,2.18,10A258.91,258.91,0,0,1,140.79,239.81Z"/><path d="M138.23,183.26a5.79,5.79,0,1,1-5.79-5.79A5.79,5.79,0,0,1,138.23,183.26Z"/><path d="M154.92,183.26a5.79,5.79,0,1,1-5.79-5.79A5.79,5.79,0,0,1,154.92,183.26Z"/><path d="M131.67,163.13a5.08,5.08,0,0,1-1.94-.38,21.41,21.41,0,0,0-16.84,0,5.14,5.14,0,1,1-3.88-9.51,31.6,31.6,0,0,1,24.59,0,5.13,5.13,0,0,1-1.93,9.89Z"/><path d="M170.62,163.13a5.06,5.06,0,0,1-1.93-.38,21.44,21.44,0,0,0-16.85,0,5.13,5.13,0,1,1-3.87-9.51,31.6,31.6,0,0,1,24.59,0,5.13,5.13,0,0,1-1.94,9.89Z"/><path d="M301.79,160.48H275.35V248a2.58,2.58,0,0,1-2.44,2.71h-7.46A2.58,2.58,0,0,1,263,248V160.48H236.56c-1.49,0-2.71-.67-2.71-2.17v-6a2.58,2.58,0,0,1,2.71-2.44h65.23a2.39,2.39,0,0,1,2.58,2.44v6C304.37,159.67,303.28,160.48,301.79,160.48Z"/><path d="M373.26,217.17H327.82v1.9c0,16.14,6.38,22.11,18.86,22.11a185.54,185.54,0,0,0,24.13-1.49h.68a1.92,1.92,0,0,1,2.17,1.89v4.62c0,1.76-.54,2.71-2.71,3.12a123.13,123.13,0,0,1-24.27,2.3c-15.6,0-30.79-7.33-30.79-32.55V206.86c0-19.39,10.71-31.73,30.11-31.73,19.8,0,29.83,12.48,29.83,31.73v7.33C375.83,216,374.88,217.17,373.26,217.17Zm-9.5-10.31c0-15.32-5.83-21.29-17.76-21.29-11.67,0-18.18,6.65-18.18,21.29v1.23h35.94Z"/><path d="M413.93,251.62c-5,0-14.78-.41-21.43-2-1.76-.4-2.84-1.21-2.84-2.71v-4.75a2.2,2.2,0,0,1,2.44-2h.54c6.51.82,16.41,1.49,21.29,1.49,8.82,0,13.43-2.3,13.43-9.62,0-4.07-2.44-6.65-10.17-11.26l-13.7-8.14c-8.27-5-13.83-10.85-13.83-19.39,0-14.11,10.58-18,24.55-18a127.53,127.53,0,0,1,21.15,1.76c1.76.28,2.58,1.22,2.58,2.72v4.47a2.08,2.08,0,0,1-2.31,2.31h-.41c-4.74-.41-13.42-1.09-21-1.09s-12.62.95-12.62,7.87c0,4.07,3.12,6.64,9.36,10.3l13.43,8c11.25,6.64,14.91,12.47,14.91,20.48C439.29,245.79,429.12,251.62,413.93,251.62Z"/><path d="M492.45,250.94a65.47,65.47,0,0,1-8.82.68c-12.47,0-18.44-3.25-18.44-18.17V186.12L452,184.62c-1.49-.13-2.57-.94-2.57-2.44v-3.66a2.38,2.38,0,0,1,2.57-2.44h13.16V162.79a2.76,2.76,0,0,1,2.44-2.71l7.05-1.09h.41a2.16,2.16,0,0,1,2,2.31v14.78h14.65a2.72,2.72,0,0,1,2.71,2.71v4.61a2.73,2.73,0,0,1-2.71,2.72H477.12v47.33c0,7.46,1.9,8.54,7.33,8.54H492c1.9,0,2.85.54,2.85,1.9v4.74C494.89,249.86,494.21,250.67,492.45,250.94Z"/><path d="M585.31,170h-.41c-6.51-.27-16.68-1.09-28.21-1.09-11,0-17.77,5.29-17.77,23.06v17c0,18.72,8.55,23.06,15.19,23.06,3.8,0,7.19-.14,10.45-.41V200.36a2.61,2.61,0,0,1,2.57-2.72h17.36a2.74,2.74,0,0,1,2.72,2.72v45.56c0,1.9-.68,2.71-2.72,3.12a147.18,147.18,0,0,1-30.38,2.85c-15.45,0-38.65-8.81-38.65-43.13V192c0-34.59,21.57-43.27,41.23-43.27A128.12,128.12,0,0,1,585,151.81c1.35.27,2.3.81,2.3,2v14.38C587.34,169.71,586.53,170,585.31,170Z"/><path d="M636.16,251.89c-22,0-34-13.7-34-35.26v-9.49c0-21.57,12.06-35.26,34-35.26s33.9,13.69,33.9,35.26v9.49C670.06,238.19,658.12,251.89,636.16,251.89Zm12.07-44.75c0-11-4.21-16.55-12.07-16.55S624,196.15,624,207.14v9.49c0,11,4.34,16.68,12.21,16.68s12.07-5.69,12.07-16.68Z"/><path d="M724.7,190.05h-1.08a36.55,36.55,0,0,0-17.5,4.74v53a2.83,2.83,0,0,1-2.71,2.85H687a3,3,0,0,1-2.84-2.85V175.67a2.72,2.72,0,0,1,2.71-2.71H703a2.72,2.72,0,0,1,2.71,2.71v2.72A29,29,0,0,1,724,171.88a2.72,2.72,0,0,1,2.71,2.71v12.88C726.74,188.69,725.93,190.05,724.7,190.05Z"/><path d="M758.2,164.15H740.57a2.72,2.72,0,0,1-2.71-2.72V148.82a2.71,2.71,0,0,1,2.71-2.71H758.2a2.72,2.72,0,0,1,2.71,2.71v12.61A2.73,2.73,0,0,1,758.2,164.15Zm-.55,86.52H741.11A2.72,2.72,0,0,1,738.4,248V175.67a2.72,2.72,0,0,1,2.71-2.71h16.54a2.72,2.72,0,0,1,2.72,2.71V248A2.72,2.72,0,0,1,757.65,250.67Z"/><path d="M796.57,250.67H780a3,3,0,0,1-2.85-2.85V149.36a2.84,2.84,0,0,1,2.85-2.71h16.54a2.6,2.6,0,0,1,2.58,2.71v98.46A2.72,2.72,0,0,1,796.57,250.67Z"/><path d="M834.81,250.67H818.27a3,3,0,0,1-2.85-2.85V149.36a2.84,2.84,0,0,1,2.85-2.71h16.54a2.6,2.6,0,0,1,2.58,2.71v98.46A2.72,2.72,0,0,1,834.81,250.67Z"/><path d="M910.89,250.67H895.7A2.72,2.72,0,0,1,893,248v-2.17a29.93,29.93,0,0,1-18.85,6.1c-11.8,0-23.19-5.69-23.19-23.33v-1.22c0-15.86,10.17-22.92,33.36-22.92h7.33v-4.88c0-7.73-3.8-9.36-10.18-9.36-8.68,0-18.31.55-22.51.95h-.68a2.21,2.21,0,0,1-2.44-2.44v-11a3,3,0,0,1,2.58-3,109.33,109.33,0,0,1,23.46-2.84c19.53,0,31.74,7.86,31.74,27.66V248A2.73,2.73,0,0,1,910.89,250.67ZM892,217.44h-7.73c-9.49,0-11.93,3.26-11.93,9.9v1.22c0,5.7,2.85,6.79,8.54,6.79a25.05,25.05,0,0,0,11.12-3Z"/></svg>